<?xml version="1.0" standalone="no"?>
<!DOCTYPE svg PUBLIC "-//W3C//DTD SVG 20010904//EN"
 "http://www.w3.org/TR/2001/REC-SVG-20010904/DTD/svg10.dtd">
<svg version="1.0" xmlns="http://www.w3.org/2000/svg"
 width="204.000000pt" height="192.000000pt" viewBox="0 0 204.000000 192.000000"
 preserveAspectRatio="xMidYMid meet">

<g transform="translate(0.000000,192.000000) scale(0.100000,-0.100000)"
fill="#000000" stroke="none">
<path d="M162 1881 c-59 -47 -82 -78 -125 -168 l-32 -68 -3 -655 c-2 -473 0
-671 9 -711 17 -86 76 -186 138 -237 l52 -42 818 0 818 0 40 29 c71 51 131
150 152 251 9 40 12 231 9 710 l-3 655 -32 68 c-43 90 -66 121 -125 168 l-50
39 -808 0 -808 0 -50 -39z m466 -201 c97 -59 94 -201 -6 -258 -60 -33 -119
-26 -171 21 -70 65 -52 199 32 241 44 22 105 20 145 -4z m52 -850 l0 -470
-130 0 -130 0 0 463 c0 255 3 467 7 470 3 4 62 7 130 7 l123 0 0 -470z m428
397 l3 -67 26 30 c61 73 195 119 295 101 117 -20 187 -73 237 -181 l26 -55 3
-347 3 -348 -130 0 -130 0 -3 283 c-3 278 -3 283 -27 321 -73 117 -230 98
-286 -36 -12 -31 -15 -86 -15 -303 l0 -265 -130 0 -130 0 0 470 0 471 128 -3
127 -3 3 -68z"/>
</g>
</svg>
