<?xml version="1.0" standalone="no"?>
<!DOCTYPE svg PUBLIC "-//W3C//DTD SVG 20010904//EN"
 "http://www.w3.org/TR/2001/REC-SVG-20010904/DTD/svg10.dtd">
<svg version="1.0" xmlns="http://www.w3.org/2000/svg"
 width="48.000000pt" height="48.000000pt" viewBox="0 0 48.000000 48.000000"
 preserveAspectRatio="xMidYMid meet">

<g transform="translate(0.000000,48.000000) scale(0.100000,-0.100000)"
fill="#000000" stroke="none">
<path d="M126 299 c-27 -31 -34 -63 -16 -74 6 -3 10 0 10 8 0 9 20 22 47 31
50 17 73 10 73 -25 0 -11 5 -19 10 -19 21 0 9 51 -19 80 -37 39 -72 39 -105
-1z"/>
<path d="M140 220 c0 -5 5 -10 10 -10 6 0 10 5 10 10 0 6 -4 10 -10 10 -5 0
-10 -4 -10 -10z"/>
<path d="M200 220 c0 -5 5 -10 10 -10 6 0 10 5 10 10 0 6 -4 10 -10 10 -5 0
-10 -4 -10 -10z"/>
<path d="M108 112 c-22 -13 -48 -56 -48 -78 0 -2 54 -4 120 -4 66 0 120 2 120
4 0 23 -28 69 -49 80 -25 14 -27 13 -43 -17 -15 -28 -17 -29 -18 -9 0 12 -4
22 -10 22 -5 0 -10 -10 -10 -22 -1 -20 -3 -19 -18 9 -17 31 -17 32 -44 15z"/>
</g>
</svg>
